{"title":"Redemption.2013.HDRiP.XViD-UNiQUE","uid":8623635,"size":1482412032,"categoryP":"video","categoryS":"movies","magnet":"?xt=urn:btih:5e3c8f4c9fac1ce1d9936564bd6eed4514315fe0&amp;dn=Redemption.2013.HDRiP.XViD-UNiQUE&amp;tr=udp%3A%2F%2Ftracker.openbittorrent.com%3A80&amp;tr=udp%3A%2F%2Fopen.demonii.com%3A1337&amp;tr=udp%3A%2F%2Ftracker.coppersurfer.tk%3A6969&amp;tr=udp%3A%2F%2Fexodus.desync.com%3A6969","seeders":1,"leechers":0,"uploader":"Thhaque","files":2,"time":1372442979,"description":"Redemption.2013.HDRiP.XViD-UNiQUE\n\nGenre: Action, Thriller\nYear: 2013\nCountry: USA\nDirector: Steven Knight \nRuntime: 100 min\nCasts: Jason Statham, Lee Asquith-Coe, Vicky McClure, Senem Temiz, Agata Buzek, Siobhan Hewlett, Benedict Wong, Ian Pirie, David Bradley, Ger Ryan, Chris Cowlin, Lee Nicholas Harris, Paul Blackwell, Andrew Ellis, Christian Brassington\n\nGeneral\nComplete name                            : Redemption.avi\nFormat                                   : AVI\nFormat/Info                              : Audio Video Interleave\nFile size                                : 1.37 GiB\nDuration                                 : 1h 40mn\nOverall bit rate                         : 1 954 Kbps\nWriting application                      : VirtualDubMod 1.5.10.2 (build 2540/release)\nWriting library                          : VirtualDubMod build 2540/release\n\nVideo\nID                                       : 0\nFormat                                   : MPEG-4 Visual\nFormat profile                           : Advanced Simple@L5\nFormat settings, BVOP                    : 2\nFormat settings, QPel                    : No\nFormat settings, GMC                     : No warppoints\nFormat settings, Matrix                  : Default (H.263)\nMuxing mode                              : Packed bitstream\nCodec ID                                 : XVID\nCodec ID/Hint                            : XviD\nDuration                                 : 1h 40mn\nBit rate                                 : 1 484 Kbps\nWidth                                    : 720 pixels\nHeight                                   : 304 pixels\nDisplay aspect ratio                     : 2.35:1\nFrame rate                               : 23.976 fps\nColor space                              : YUV\nChroma subsampling                       : 4:2:0\nBit depth                                : 8 bits\nScan type                                : Progressive\nCompression mode                         : Lossy\nBits/(Pixel*Frame)                       : 0.283\nStream size                              : 1.04 GiB (76%)\nWriting library                          : XviD 64\n\nAudio\nID                                       : 1\nFormat                                   : AC-3\nFormat/Info                              : Audio Coding 3\nMode extension                           : CM (complete main)\nFormat settings, Endianness              : Big\nCodec ID                                 : 2000\nDuration                                 : 1h 40mn\nBit rate mode                            : Constant\nBit rate                                 : 384 Kbps\nChannel(s)                               : 6 channels\nChannel positions                        : Front: L C R, Side: L R, LFE\nSampling rate                            : 48.0 KHz\nBit depth                                : 16 bits\nCompression mode                         : Lossy\nStream size                              : 276 MiB (20%)\nAlignment                                : Split accross interleaves\n\n\n\n.: Plot :.\nHomeless and on the run from a military court martial, a damaged ex-special forces soldier navigating Londons criminal underworld seizes an opportunity to assume another mans identity -- transforming into an avenging angel in the process.\n\n.:Screenshots:. &lt;a href=&quot;\nhttp://s21.postimg.org/6hi2y7t93/8a264624ce23b526.png&quot; rel=&quot;nofollow&quot; target=&quot;_NEW&quot;&gt;\nhttp://s21.postimg.org/6hi2y7t93/8a264624ce23b526.png&lt;/a&gt; &lt;a href=&quot;\nhttp://s22.postimg.org/ez88go0lt/829ec56e817c98fa.png&quot; rel=&quot;nofollow&quot; target=&quot;_NEW&quot;&gt;\nhttp://s22.postimg.org/ez88go0lt/829ec56e817c98fa.png&lt;/a&gt;\n","torrent":{"xt":"urn:btih:5e3c8f4c9fac1ce1d9936564bd6eed4514315fe0","amp;dn":"Redemption.2013.HDRiP.XViD-UNiQUE","amp;tr":["udp%3A%2F%2Ftracker.openbittorrent.com%3A80","udp%3A%2F%2Fopen.demonii.com%3A1337","udp%3A%2F%2Ftracker.coppersurfer.tk%3A6969","udp%3A%2F%2Fexodus.desync.com%3A6969"],"infoHash":"5e3c8f4c9fac1ce1d9936564bd6eed4514315fe0","infoHashBuffer":{"type":"Buffer","data":[94,60,143,76,159,172,28,225,217,147,101,100,189,110,237,69,20,49,95,224]},"announce":[],"urlList":[]}}